# xmcd
#
# Track frame offsets: 
#        150
#        18219
#        39201
#        54637
#        70692
#        86773
#        106762
#        123299
#        142301
#        163526
#        181750
#
# Disc length: 2564 seconds
#
# Revision: 0
# Processed by: cddbd v1.5.2PL0 Copyright (c) Steve Scherf et al.
# Submitted via: ExactAudioCopy v1.3
#
DISCID=870a020b
DTITLE=Ghalia - Mississippi Blend
DYEAR=2019
DGENRE=Blues Rock
TTITLE0=Gypsy Lady
TTITLE1=Meet You Down the Road
TTITLE2=Squeeze
TTITLE3=First Time I Died
TTITLE4=Lucky Number
TTITLE5=Wade in the Water
TTITLE6=Drag Me Down
TTITLE7=Shake and Repeat
TTITLE8=Release Me
TTITLE9=Why Don't You Sell Your Children
TTITLE10=I Thought I Told You Not to Tell Them
EXTD=
EXTT0=
EXTT1=
EXTT2=
EXTT3=
EXTT4=
EXTT5=
EXTT6=
EXTT7=
EXTT8=
EXTT9=
EXTT10=
PLAYORDER=
